# xmcd
#
# Track frame offsets: 
#        150
#        20396
#        37235
#        52375
#        68179
#        97619
#        112518
#        132311
#        148776
#        161963
#        174080
#
# Disc length: 2640 seconds
#
# Revision: 0
# Processed by: cddbd v1.5.2PL0 Copyright (c) Steve Scherf et al.
# Submitted via: ExactAudioCopy v0.95a4
#
DISCID=930a4e0b
DTITLE=Orbitsuns - The First Drink Of The Day
DYEAR=2010
DGENRE=Country
TTITLE0=How Red White and Blue are You?
TTITLE1=Cloudy Day
TTITLE2=Die with my Boots On
TTITLE3=Redneck Disco
TTITLE4=Trains
TTITLE5=First Drink of the Day
TTITLE6=The Killers Woodpile
TTITLE7=Booze Hound
TTITLE8=Who You Lookin Pretty For Today?
TTITLE9=Church on Sunday
TTITLE10=Speed and Alcohol
EXTD=
EXTT0=
EXTT1=
EXTT2=
EXTT3=
EXTT4=
EXTT5=
EXTT6=
EXTT7=
EXTT8=
EXTT9=
EXTT10=
PLAYORDER=
